<?xml version="1.0" encoding="utf-8" standalone="no"?>
<!DOCTYPE svg PUBLIC "-//W3C//DTD SVG 1.1//EN"
  "http://www.w3.org/Graphics/SVG/1.1/DTD/svg11.dtd">
<svg xmlns:xlink="http://www.w3.org/1999/xlink" width="499.316875pt" height="332.674062pt" viewBox="0 0 499.316875 332.674062" xmlns="http://www.w3.org/2000/svg" version="1.1">
 <metadata>
  <rdf:RDF xmlns:dc="http://purl.org/dc/elements/1.1/" xmlns:cc="http://creativecommons.org/ns#" xmlns:rdf="http://www.w3.org/1999/02/22-rdf-syntax-ns#">
   <cc:Work>
    <dc:type rdf:resource="http://purl.org/dc/dcmitype/StillImage"/>
    <dc:date>2024-05-26T20:24:49.771103</dc:date>
    <dc:format>image/svg+xml</dc:format>
    <dc:creator>
     <cc:Agent>
      <dc:title>Matplotlib v3.5.3, https://matplotlib.org/</dc:title>
     </cc:Agent>
    </dc:creator>
   </cc:Work>
  </rdf:RDF>
 </metadata>
 <defs>
  <style type="text/css">*{stroke-linejoin: round; stroke-linecap: butt}</style>
 </defs>
 <g id="figure_1">
  <g id="patch_1">
   <path d="M 0 332.674062 
L 499.316875 332.674062 
L 499.316875 0 
L 0 0 
z
" style="fill: #ffffff"/>
  </g>
  <g id="axes_1">
   <g id="patch_2">
    <path d="M 45.716875 245.597813 
L 492.116875 245.597813 
L 492.116875 23.837812 
L 45.716875 23.837812 
z
" style="fill: #ffffff"/>
   </g>
   <g id="patch_3">
    <path d="M 51.804148 245.597813 
L 58.567784 245.597813 
L 58.567784 157.078613 
L 51.804148 157.078613 
z
" clip-path="url(#p7c87b8d049)" style="fill: #1f77b4"/>
   </g>
   <g id="patch_4">
    <path d="M 78.858693 245.597813 
L 85.62233 245.597813 
L 85.62233 203.056852 
L 78.858693 203.056852 
z
" clip-path="url(#p7c87b8d049)" style="fill: #1f77b4"/>
   </g>
   <g id="patch_5">
    <path d="M 105.913239 245.597813 
L 112.676875 245.597813 
L 112.676875 234.731572 
L 105.913239 234.731572 
z
" clip-path="url(#p7c87b8d049)" style="fill: #1f77b4"/>
   </g>
   <g id="patch_6">
    <path d="M 132.967784 245.597813 
L 139.73142 245.597813 
L 139.73142 195.443093 
L 132.967784 195.443093 
z
" clip-path="url(#p7c87b8d049)" style="fill: #1f77b4"/>
   </g>
   <g id="patch_7">
    <path d="M 160.02233 245.597813 
L 166.785966 245.597813 
L 166.785966 234.029333 
L 160.02233 234.029333 
z
" clip-path="url(#p7c87b8d049)" style="fill: #1f77b4"/>
   </g>
   <g id="patch_8">
    <path d="M 187.076875 245.597813 
L 193.840511 245.597813 
L 193.840511 202.613333 
L 187.076875 202.613333 
z
" clip-path="url(#p7c87b8d049)" style="fill: #1f77b4"/>
   </g>
   <g id="patch_9">
    <path d="M 214.13142 245.597813 
L 220.895057 245.597813 
L 220.895057 239.129813 
L 214.13142 239.129813 
z
" clip-path="url(#p7c87b8d049)" style="fill: #1f77b4"/>
   </g>
   <g id="patch_10">
    <path d="M 241.185966 245.597813 
L 247.949602 245.597813 
L 247.949602 226.637333 
L 241.185966 226.637333 
z
" clip-path="url(#p7c87b8d049)" style="fill: #1f77b4"/>
   </g>
   <g id="patch_11">
    <path d="M 268.240511 245.597813 
L 275.004148 245.597813 
L 275.004148 241.199573 
L 268.240511 241.199573 
z
" clip-path="url(#p7c87b8d049)" style="fill: #1f77b4"/>
   </g>
   <g id="patch_12">
    <path d="M 295.295057 245.597813 
L 302.058693 245.597813 
L 302.058693 240.053812 
L 295.295057 240.053812 
z
" clip-path="url(#p7c87b8d049)" style="fill: #1f77b4"/>
   </g>
   <g id="patch_13">
    <path d="M 322.349602 245.597813 
L 329.113239 245.597813 
L 329.113239 232.661812 
L 322.349602 232.661812 
z
" clip-path="url(#p7c87b8d049)" style="fill: #1f77b4"/>
   </g>
   <g id="patch_14">
    <path d="M 349.404148 245.597813 
L 356.167784 245.597813 
L 356.167784 241.901813 
L 349.404148 241.901813 
z
" clip-path="url(#p7c87b8d049)" style="fill: #1f77b4"/>
   </g>
   <g id="patch_15">
    <path d="M 376.458693 245.597813 
L 383.22233 245.597813 
L 383.22233 239.573332 
L 376.458693 239.573332 
z
" clip-path="url(#p7c87b8d049)" style="fill: #1f77b4"/>
   </g>
   <g id="patch_16">
    <path d="M 403.513239 245.597813 
L 410.276875 245.597813 
L 410.276875 240.497332 
L 403.513239 240.497332 
z
" clip-path="url(#p7c87b8d049)" style="fill: #1f77b4"/>
   </g>
   <g id="patch_17">
    <path d="M 430.567784 245.597813 
L 437.33142 245.597813 
L 437.33142 235.212052 
L 430.567784 235.212052 
z
" clip-path="url(#p7c87b8d049)" style="fill: #1f77b4"/>
   </g>
   <g id="patch_18">
    <path d="M 457.62233 245.597813 
L 464.385966 245.597813 
L 464.385966 238.649333 
L 457.62233 238.649333 
z
" clip-path="url(#p7c87b8d049)" style="fill: #1f77b4"/>
   </g>
   <g id="patch_19">
    <path d="M 59.920511 245.597813 
L 66.684148 245.597813 
L 66.684148 177.073972 
L 59.920511 177.073972 
z
" clip-path="url(#p7c87b8d049)" style="fill: #ff7f0e"/>
   </g>
   <g id="patch_20">
    <path d="M 86.975057 245.597813 
L 93.738693 245.597813 
L 93.738693 203.315573 
L 86.975057 203.315573 
z
" clip-path="url(#p7c87b8d049)" style="fill: #ff7f0e"/>
   </g>
   <g id="patch_21">
    <path d="M 114.029602 245.597813 
L 120.793239 245.597813 
L 120.793239 230.333333 
L 114.029602 230.333333 
z
" clip-path="url(#p7c87b8d049)" style="fill: #ff7f0e"/>
   </g>
   <g id="patch_22">
    <path d="M 141.084148 245.597813 
L 147.847784 245.597813 
L 147.847784 204.202612 
L 141.084148 204.202612 
z
" clip-path="url(#p7c87b8d049)" style="fill: #ff7f0e"/>
   </g>
   <g id="patch_23">
    <path d="M 168.138693 245.597813 
L 174.90233 245.597813 
L 174.90233 233.253173 
L 168.138693 233.253173 
z
" clip-path="url(#p7c87b8d049)" style="fill: #ff7f0e"/>
   </g>
   <g id="patch_24">
    <path d="M 195.193239 245.597813 
L 201.956875 245.597813 
L 201.956875 223.495733 
L 195.193239 223.495733 
z
" clip-path="url(#p7c87b8d049)" style="fill: #ff7f0e"/>
   </g>
   <g id="patch_25">
    <path d="M 222.247784 245.597813 
L 229.01142 245.597813 
L 229.01142 234.472853 
L 222.247784 234.472853 
z
" clip-path="url(#p7c87b8d049)" style="fill: #ff7f0e"/>
   </g>
   <g id="patch_26">
    <path d="M 249.30233 245.597813 
L 256.065966 245.597813 
L 256.065966 232.107413 
L 249.30233 232.107413 
z
" clip-path="url(#p7c87b8d049)" style="fill: #ff7f0e"/>
   </g>
   <g id="patch_27">
    <path d="M 276.356875 245.597813 
L 283.120511 245.597813 
L 283.120511 240.090773 
L 276.356875 240.090773 
z
" clip-path="url(#p7c87b8d049)" style="fill: #ff7f0e"/>
   </g>
   <g id="patch_28">
    <path d="M 303.41142 245.597813 
L 310.175057 245.597813 
L 310.175057 238.871093 
L 303.41142 238.871093 
z
" clip-path="url(#p7c87b8d049)" style="fill: #ff7f0e"/>
   </g>
   <g id="patch_29">
    <path d="M 330.465966 245.597813 
L 337.229602 245.597813 
L 337.229602 231.737812 
L 330.465966 231.737812 
z
" clip-path="url(#p7c87b8d049)" style="fill: #ff7f0e"/>
   </g>
   <g id="patch_30">
    <path d="M 357.520511 245.597813 
L 364.284148 245.597813 
L 364.284148 239.277653 
L 357.520511 239.277653 
z
" clip-path="url(#p7c87b8d049)" style="fill: #ff7f0e"/>
   </g>
   <g id="patch_31">
    <path d="M 384.575057 245.597813 
L 391.338693 245.597813 
L 391.338693 239.462453 
L 384.575057 239.462453 
z
" clip-path="url(#p7c87b8d049)" style="fill: #ff7f0e"/>
   </g>
   <g id="patch_32">
    <path d="M 411.629602 245.597813 
L 418.393239 245.597813 
L 418.393239 239.942933 
L 411.629602 239.942933 
z
" clip-path="url(#p7c87b8d049)" style="fill: #ff7f0e"/>
   </g>
   <g id="patch_33">
    <path d="M 438.684148 245.597813 
L 445.447784 245.597813 
L 445.447784 234.768532 
L 438.684148 234.768532 
z
" clip-path="url(#p7c87b8d049)" style="fill: #ff7f0e"/>
   </g>
   <g id="patch_34">
    <path d="M 465.738693 245.597813 
L 472.50233 245.597813 
L 472.50233 240.349492 
L 465.738693 240.349492 
z
" clip-path="url(#p7c87b8d049)" style="fill: #ff7f0e"/>
   </g>
   <g id="matplotlib.axis_1">
    <g id="xtick_1">
     <g id="line2d_1">
      <defs>
       <path id="m4bc2d076b7" d="M 0 0 
L 0 3.5 
" style="stroke: #000000; stroke-width: 0.8"/>
      </defs>
      <g>
       <use xlink:href="#m4bc2d076b7" x="59.244148" y="245.597813" style="stroke: #000000; stroke-width: 0.8"/>
      </g>
     </g>
     <g id="text_1">
      <!-- 000000001 -->
      <g transform="translate(62.003523 309.860313)rotate(-90)scale(0.1 -0.1)">
       <defs>
        <path id="DejaVuSans-30" d="M 2034 4250 
Q 1547 4250 1301 3770 
Q 1056 3291 1056 2328 
Q 1056 1369 1301 889 
Q 1547 409 2034 409 
Q 2525 409 2770 889 
Q 3016 1369 3016 2328 
Q 3016 3291 2770 3770 
Q 2525 4250 2034 4250 
z
M 2034 4750 
Q 2819 4750 3233 4129 
Q 3647 3509 3647 2328 
Q 3647 1150 3233 529 
Q 2819 -91 2034 -91 
Q 1250 -91 836 529 
Q 422 1150 422 2328 
Q 422 3509 836 4129 
Q 1250 4750 2034 4750 
z
" transform="scale(0.015625)"/>
        <path id="DejaVuSans-31" d="M 794 531 
L 1825 531 
L 1825 4091 
L 703 3866 
L 703 4441 
L 1819 4666 
L 2450 4666 
L 2450 531 
L 3481 531 
L 3481 0 
L 794 0 
L 794 531 
z
" transform="scale(0.015625)"/>
       </defs>
       <use xlink:href="#DejaVuSans-30"/>
       <use xlink:href="#DejaVuSans-30" x="63.623047"/>
       <use xlink:href="#DejaVuSans-30" x="127.246094"/>
       <use xlink:href="#DejaVuSans-30" x="190.869141"/>
       <use xlink:href="#DejaVuSans-30" x="254.492188"/>
       <use xlink:href="#DejaVuSans-30" x="318.115234"/>
       <use xlink:href="#DejaVuSans-30" x="381.738281"/>
       <use xlink:href="#DejaVuSans-30" x="445.361328"/>
       <use xlink:href="#DejaVuSans-31" x="508.984375"/>
      </g>
     </g>
    </g>
    <g id="xtick_2">
     <g id="line2d_2">
      <g>
       <use xlink:href="#m4bc2d076b7" x="86.298693" y="245.597813" style="stroke: #000000; stroke-width: 0.8"/>
      </g>
     </g>
     <g id="text_2">
      <!-- 000000010 -->
      <g transform="translate(89.058068 309.860313)rotate(-90)scale(0.1 -0.1)">
       <use xlink:href="#DejaVuSans-30"/>
       <use xlink:href="#DejaVuSans-30" x="63.623047"/>
       <use xlink:href="#DejaVuSans-30" x="127.246094"/>
       <use xlink:href="#DejaVuSans-30" x="190.869141"/>
       <use xlink:href="#DejaVuSans-30" x="254.492188"/>
       <use xlink:href="#DejaVuSans-30" x="318.115234"/>
       <use xlink:href="#DejaVuSans-30" x="381.738281"/>
       <use xlink:href="#DejaVuSans-31" x="445.361328"/>
       <use xlink:href="#DejaVuSans-30" x="508.984375"/>
      </g>
     </g>
    </g>
    <g id="xtick_3">
     <g id="line2d_3">
      <g>
       <use xlink:href="#m4bc2d076b7" x="113.353239" y="245.597813" style="stroke: #000000; stroke-width: 0.8"/>
      </g>
     </g>
     <g id="text_3">
      <!-- 000000011 -->
      <g transform="translate(116.112614 309.860313)rotate(-90)scale(0.1 -0.1)">
       <use xlink:href="#DejaVuSans-30"/>
       <use xlink:href="#DejaVuSans-30" x="63.623047"/>
       <use xlink:href="#DejaVuSans-30" x="127.246094"/>
       <use xlink:href="#DejaVuSans-30" x="190.869141"/>
       <use xlink:href="#DejaVuSans-30" x="254.492188"/>
       <use xlink:href="#DejaVuSans-30" x="318.115234"/>
       <use xlink:href="#DejaVuSans-30" x="381.738281"/>
       <use xlink:href="#DejaVuSans-31" x="445.361328"/>
       <use xlink:href="#DejaVuSans-31" x="508.984375"/>
      </g>
     </g>
    </g>
    <g id="xtick_4">
     <g id="line2d_4">
      <g>
       <use xlink:href="#m4bc2d076b7" x="140.407784" y="245.597813" style="stroke: #000000; stroke-width: 0.8"/>
      </g>
     </g>
     <g id="text_4">
      <!-- 000000100 -->
      <g transform="translate(143.167159 309.860313)rotate(-90)scale(0.1 -0.1)">
       <use xlink:href="#DejaVuSans-30"/>
       <use xlink:href="#DejaVuSans-30" x="63.623047"/>
       <use xlink:href="#DejaVuSans-30" x="127.246094"/>
       <use xlink:href="#DejaVuSans-30" x="190.869141"/>
       <use xlink:href="#DejaVuSans-30" x="254.492188"/>
       <use xlink:href="#DejaVuSans-30" x="318.115234"/>
       <use xlink:href="#DejaVuSans-31" x="381.738281"/>
       <use xlink:href="#DejaVuSans-30" x="445.361328"/>
       <use xlink:href="#DejaVuSans-30" x="508.984375"/>
      </g>
     </g>
    </g>
    <g id="xtick_5">
     <g id="line2d_5">
      <g>
       <use xlink:href="#m4bc2d076b7" x="167.46233" y="245.597813" style="stroke: #000000; stroke-width: 0.8"/>
      </g>
     </g>
     <g id="text_5">
      <!-- 000000110 -->
      <g transform="translate(170.221705 309.860313)rotate(-90)scale(0.1 -0.1)">
       <use xlink:href="#DejaVuSans-30"/>
       <use xlink:href="#DejaVuSans-30" x="63.623047"/>
       <use xlink:href="#DejaVuSans-30" x="127.246094"/>
       <use xlink:href="#DejaVuSans-30" x="190.869141"/>
       <use xlink:href="#DejaVuSans-30" x="254.492188"/>
       <use xlink:href="#DejaVuSans-30" x="318.115234"/>
       <use xlink:href="#DejaVuSans-31" x="381.738281"/>
       <use xlink:href="#DejaVuSans-31" x="445.361328"/>
       <use xlink:href="#DejaVuSans-30" x="508.984375"/>
      </g>
     </g>
    </g>
    <g id="xtick_6">
     <g id="line2d_6">
      <g>
       <use xlink:href="#m4bc2d076b7" x="194.516875" y="245.597813" style="stroke: #000000; stroke-width: 0.8"/>
      </g>
     </g>
     <g id="text_6">
      <!-- 000001000 -->
      <g transform="translate(197.27625 309.860313)rotate(-90)scale(0.1 -0.1)">
       <use xlink:href="#DejaVuSans-30"/>
       <use xlink:href="#DejaVuSans-30" x="63.623047"/>
       <use xlink:href="#DejaVuSans-30" x="127.246094"/>
       <use xlink:href="#DejaVuSans-30" x="190.869141"/>
       <use xlink:href="#DejaVuSans-30" x="254.492188"/>
       <use xlink:href="#DejaVuSans-31" x="318.115234"/>
       <use xlink:href="#DejaVuSans-30" x="381.738281"/>
       <use xlink:href="#DejaVuSans-30" x="445.361328"/>
       <use xlink:href="#DejaVuSans-30" x="508.984375"/>
      </g>
     </g>
    </g>
    <g id="xtick_7">
     <g id="line2d_7">
      <g>
       <use xlink:href="#m4bc2d076b7" x="221.57142" y="245.597813" style="stroke: #000000; stroke-width: 0.8"/>
      </g>
     </g>
     <g id="text_7">
      <!-- 000001001 -->
      <g transform="translate(224.330795 309.860313)rotate(-90)scale(0.1 -0.1)">
       <use xlink:href="#DejaVuSans-30"/>
       <use xlink:href="#DejaVuSans-30" x="63.623047"/>
       <use xlink:href="#DejaVuSans-30" x="127.246094"/>
       <use xlink:href="#DejaVuSans-30" x="190.869141"/>
       <use xlink:href="#DejaVuSans-30" x="254.492188"/>
       <use xlink:href="#DejaVuSans-31" x="318.115234"/>
       <use xlink:href="#DejaVuSans-30" x="381.738281"/>
       <use xlink:href="#DejaVuSans-30" x="445.361328"/>
       <use xlink:href="#DejaVuSans-31" x="508.984375"/>
      </g>
     </g>
    </g>
    <g id="xtick_8">
     <g id="line2d_8">
      <g>
       <use xlink:href="#m4bc2d076b7" x="248.625966" y="245.597813" style="stroke: #000000; stroke-width: 0.8"/>
      </g>
     </g>
     <g id="text_8">
      <!-- 000010000 -->
      <g transform="translate(251.385341 309.860313)rotate(-90)scale(0.1 -0.1)">
       <use xlink:href="#DejaVuSans-30"/>
       <use xlink:href="#DejaVuSans-30" x="63.623047"/>
       <use xlink:href="#DejaVuSans-30" x="127.246094"/>
       <use xlink:href="#DejaVuSans-30" x="190.869141"/>
       <use xlink:href="#DejaVuSans-31" x="254.492188"/>
       <use xlink:href="#DejaVuSans-30" x="318.115234"/>
       <use xlink:href="#DejaVuSans-30" x="381.738281"/>
       <use xlink:href="#DejaVuSans-30" x="445.361328"/>
       <use xlink:href="#DejaVuSans-30" x="508.984375"/>
      </g>
     </g>
    </g>
    <g id="xtick_9">
     <g id="line2d_9">
      <g>
       <use xlink:href="#m4bc2d076b7" x="275.680511" y="245.597813" style="stroke: #000000; stroke-width: 0.8"/>
      </g>
     </g>
     <g id="text_9">
      <!-- 000010010 -->
      <g transform="translate(278.439886 309.860313)rotate(-90)scale(0.1 -0.1)">
       <use xlink:href="#DejaVuSans-30"/>
       <use xlink:href="#DejaVuSans-30" x="63.623047"/>
       <use xlink:href="#DejaVuSans-30" x="127.246094"/>
       <use xlink:href="#DejaVuSans-30" x="190.869141"/>
       <use xlink:href="#DejaVuSans-31" x="254.492188"/>
       <use xlink:href="#DejaVuSans-30" x="318.115234"/>
       <use xlink:href="#DejaVuSans-30" x="381.738281"/>
       <use xlink:href="#DejaVuSans-31" x="445.361328"/>
       <use xlink:href="#DejaVuSans-30" x="508.984375"/>
      </g>
     </g>
    </g>
    <g id="xtick_10">
     <g id="line2d_10">
      <g>
       <use xlink:href="#m4bc2d076b7" x="302.735057" y="245.597813" style="stroke: #000000; stroke-width: 0.8"/>
      </g>
     </g>
     <g id="text_10">
      <!-- 000010100 -->
      <g transform="translate(305.494432 309.860313)rotate(-90)scale(0.1 -0.1)">
       <use xlink:href="#DejaVuSans-30"/>
       <use xlink:href="#DejaVuSans-30" x="63.623047"/>
       <use xlink:href="#DejaVuSans-30" x="127.246094"/>
       <use xlink:href="#DejaVuSans-30" x="190.869141"/>
       <use xlink:href="#DejaVuSans-31" x="254.492188"/>
       <use xlink:href="#DejaVuSans-30" x="318.115234"/>
       <use xlink:href="#DejaVuSans-31" x="381.738281"/>
       <use xlink:href="#DejaVuSans-30" x="445.361328"/>
       <use xlink:href="#DejaVuSans-30" x="508.984375"/>
      </g>
     </g>
    </g>
    <g id="xtick_11">
     <g id="line2d_11">
      <g>
       <use xlink:href="#m4bc2d076b7" x="329.789602" y="245.597813" style="stroke: #000000; stroke-width: 0.8"/>
      </g>
     </g>
     <g id="text_11">
      <!-- 000100000 -->
      <g transform="translate(332.548977 309.860313)rotate(-90)scale(0.1 -0.1)">
       <use xlink:href="#DejaVuSans-30"/>
       <use xlink:href="#DejaVuSans-30" x="63.623047"/>
       <use xlink:href="#DejaVuSans-30" x="127.246094"/>
       <use xlink:href="#DejaVuSans-31" x="190.869141"/>
       <use xlink:href="#DejaVuSans-30" x="254.492188"/>
       <use xlink:href="#DejaVuSans-30" x="318.115234"/>
       <use xlink:href="#DejaVuSans-30" x="381.738281"/>
       <use xlink:href="#DejaVuSans-30" x="445.361328"/>
       <use xlink:href="#DejaVuSans-30" x="508.984375"/>
      </g>
     </g>
    </g>
    <g id="xtick_12">
     <g id="line2d_12">
      <g>
       <use xlink:href="#m4bc2d076b7" x="356.844148" y="245.597813" style="stroke: #000000; stroke-width: 0.8"/>
      </g>
     </g>
     <g id="text_12">
      <!-- 000100001 -->
      <g transform="translate(359.603523 309.860313)rotate(-90)scale(0.1 -0.1)">
       <use xlink:href="#DejaVuSans-30"/>
       <use xlink:href="#DejaVuSans-30" x="63.623047"/>
       <use xlink:href="#DejaVuSans-30" x="127.246094"/>
       <use xlink:href="#DejaVuSans-31" x="190.869141"/>
       <use xlink:href="#DejaVuSans-30" x="254.492188"/>
       <use xlink:href="#DejaVuSans-30" x="318.115234"/>
       <use xlink:href="#DejaVuSans-30" x="381.738281"/>
       <use xlink:href="#DejaVuSans-30" x="445.361328"/>
       <use xlink:href="#DejaVuSans-31" x="508.984375"/>
      </g>
     </g>
    </g>
    <g id="xtick_13">
     <g id="line2d_13">
      <g>
       <use xlink:href="#m4bc2d076b7" x="383.898693" y="245.597813" style="stroke: #000000; stroke-width: 0.8"/>
      </g>
     </g>
     <g id="text_13">
      <!-- 000100010 -->
      <g transform="translate(386.658068 309.860313)rotate(-90)scale(0.1 -0.1)">
       <use xlink:href="#DejaVuSans-30"/>
       <use xlink:href="#DejaVuSans-30" x="63.623047"/>
       <use xlink:href="#DejaVuSans-30" x="127.246094"/>
       <use xlink:href="#DejaVuSans-31" x="190.869141"/>
       <use xlink:href="#DejaVuSans-30" x="254.492188"/>
       <use xlink:href="#DejaVuSans-30" x="318.115234"/>
       <use xlink:href="#DejaVuSans-30" x="381.738281"/>
       <use xlink:href="#DejaVuSans-31" x="445.361328"/>
       <use xlink:href="#DejaVuSans-30" x="508.984375"/>
      </g>
     </g>
    </g>
    <g id="xtick_14">
     <g id="line2d_14">
      <g>
       <use xlink:href="#m4bc2d076b7" x="410.953239" y="245.597813" style="stroke: #000000; stroke-width: 0.8"/>
      </g>
     </g>
     <g id="text_14">
      <!-- 000100100 -->
      <g transform="translate(413.712614 309.860313)rotate(-90)scale(0.1 -0.1)">
       <use xlink:href="#DejaVuSans-30"/>
       <use xlink:href="#DejaVuSans-30" x="63.623047"/>
       <use xlink:href="#DejaVuSans-30" x="127.246094"/>
       <use xlink:href="#DejaVuSans-31" x="190.869141"/>
       <use xlink:href="#DejaVuSans-30" x="254.492188"/>
       <use xlink:href="#DejaVuSans-30" x="318.115234"/>
       <use xlink:href="#DejaVuSans-31" x="381.738281"/>
       <use xlink:href="#DejaVuSans-30" x="445.361328"/>
       <use xlink:href="#DejaVuSans-30" x="508.984375"/>
      </g>
     </g>
    </g>
    <g id="xtick_15">
     <g id="line2d_15">
      <g>
       <use xlink:href="#m4bc2d076b7" x="438.007784" y="245.597813" style="stroke: #000000; stroke-width: 0.8"/>
      </g>
     </g>
     <g id="text_15">
      <!-- 001000000 -->
      <g transform="translate(440.767159 309.860313)rotate(-90)scale(0.1 -0.1)">
       <use xlink:href="#DejaVuSans-30"/>
       <use xlink:href="#DejaVuSans-30" x="63.623047"/>
       <use xlink:href="#DejaVuSans-31" x="127.246094"/>
       <use xlink:href="#DejaVuSans-30" x="190.869141"/>
       <use xlink:href="#DejaVuSans-30" x="254.492188"/>
       <use xlink:href="#DejaVuSans-30" x="318.115234"/>
       <use xlink:href="#DejaVuSans-30" x="381.738281"/>
       <use xlink:href="#DejaVuSans-30" x="445.361328"/>
       <use xlink:href="#DejaVuSans-30" x="508.984375"/>
      </g>
     </g>
    </g>
    <g id="xtick_16">
     <g id="line2d_16">
      <g>
       <use xlink:href="#m4bc2d076b7" x="465.06233" y="245.597813" style="stroke: #000000; stroke-width: 0.8"/>
      </g>
     </g>
     <g id="text_16">
      <!-- 001000100 -->
      <g transform="translate(467.821705 309.860313)rotate(-90)scale(0.1 -0.1)">
       <use xlink:href="#DejaVuSans-30"/>
       <use xlink:href="#DejaVuSans-30" x="63.623047"/>
       <use xlink:href="#DejaVuSans-31" x="127.246094"/>
       <use xlink:href="#DejaVuSans-30" x="190.869141"/>
       <use xlink:href="#DejaVuSans-30" x="254.492188"/>
       <use xlink:href="#DejaVuSans-30" x="318.115234"/>
       <use xlink:href="#DejaVuSans-31" x="381.738281"/>
       <use xlink:href="#DejaVuSans-30" x="445.361328"/>
       <use xlink:href="#DejaVuSans-30" x="508.984375"/>
      </g>
     </g>
    </g>
    <g id="text_17">
     <!-- Cell activation state -->
     <g transform="translate(208.973125 322.978437)scale(0.12 -0.12)">
      <defs>
       <path id="DejaVuSans-43" d="M 4122 4306 
L 4122 3641 
Q 3803 3938 3442 4084 
Q 3081 4231 2675 4231 
Q 1875 4231 1450 3742 
Q 1025 3253 1025 2328 
Q 1025 1406 1450 917 
Q 1875 428 2675 428 
Q 3081 428 3442 575 
Q 3803 722 4122 1019 
L 4122 359 
Q 3791 134 3420 21 
Q 3050 -91 2638 -91 
Q 1578 -91 968 557 
Q 359 1206 359 2328 
Q 359 3453 968 4101 
Q 1578 4750 2638 4750 
Q 3056 4750 3426 4639 
Q 3797 4528 4122 4306 
z
" transform="scale(0.015625)"/>
       <path id="DejaVuSans-65" d="M 3597 1894 
L 3597 1613 
L 953 1613 
Q 991 1019 1311 708 
Q 1631 397 2203 397 
Q 2534 397 2845 478 
Q 3156 559 3463 722 
L 3463 178 
Q 3153 47 2828 -22 
Q 2503 -91 2169 -91 
Q 1331 -91 842 396 
Q 353 884 353 1716 
Q 353 2575 817 3079 
Q 1281 3584 2069 3584 
Q 2775 3584 3186 3129 
Q 3597 2675 3597 1894 
z
M 3022 2063 
Q 3016 2534 2758 2815 
Q 2500 3097 2075 3097 
Q 1594 3097 1305 2825 
Q 1016 2553 972 2059 
L 3022 2063 
z
" transform="scale(0.015625)"/>
       <path id="DejaVuSans-6c" d="M 603 4863 
L 1178 4863 
L 1178 0 
L 603 0 
L 603 4863 
z
" transform="scale(0.015625)"/>
       <path id="DejaVuSans-20" transform="scale(0.015625)"/>
       <path id="DejaVuSans-61" d="M 2194 1759 
Q 1497 1759 1228 1600 
Q 959 1441 959 1056 
Q 959 750 1161 570 
Q 1363 391 1709 391 
Q 2188 391 2477 730 
Q 2766 1069 2766 1631 
L 2766 1759 
L 2194 1759 
z
M 3341 1997 
L 3341 0 
L 2766 0 
L 2766 531 
Q 2569 213 2275 61 
Q 1981 -91 1556 -91 
Q 1019 -91 701 211 
Q 384 513 384 1019 
Q 384 1609 779 1909 
Q 1175 2209 1959 2209 
L 2766 2209 
L 2766 2266 
Q 2766 2663 2505 2880 
Q 2244 3097 1772 3097 
Q 1472 3097 1187 3025 
Q 903 2953 641 2809 
L 641 3341 
Q 956 3463 1253 3523 
Q 1550 3584 1831 3584 
Q 2591 3584 2966 3190 
Q 3341 2797 3341 1997 
z
" transform="scale(0.015625)"/>
       <path id="DejaVuSans-63" d="M 3122 3366 
L 3122 2828 
Q 2878 2963 2633 3030 
Q 2388 3097 2138 3097 
Q 1578 3097 1268 2742 
Q 959 2388 959 1747 
Q 959 1106 1268 751 
Q 1578 397 2138 397 
Q 2388 397 2633 464 
Q 2878 531 3122 666 
L 3122 134 
Q 2881 22 2623 -34 
Q 2366 -91 2075 -91 
Q 1284 -91 818 406 
Q 353 903 353 1747 
Q 353 2603 823 3093 
Q 1294 3584 2113 3584 
Q 2378 3584 2631 3529 
Q 2884 3475 3122 3366 
z
" transform="scale(0.015625)"/>
       <path id="DejaVuSans-74" d="M 1172 4494 
L 1172 3500 
L 2356 3500 
L 2356 3053 
L 1172 3053 
L 1172 1153 
Q 1172 725 1289 603 
Q 1406 481 1766 481 
L 2356 481 
L 2356 0 
L 1766 0 
Q 1100 0 847 248 
Q 594 497 594 1153 
L 594 3053 
L 172 3053 
L 172 3500 
L 594 3500 
L 594 4494 
L 1172 4494 
z
" transform="scale(0.015625)"/>
       <path id="DejaVuSans-69" d="M 603 3500 
L 1178 3500 
L 1178 0 
L 603 0 
L 603 3500 
z
M 603 4863 
L 1178 4863 
L 1178 4134 
L 603 4134 
L 603 4863 
z
" transform="scale(0.015625)"/>
       <path id="DejaVuSans-76" d="M 191 3500 
L 800 3500 
L 1894 563 
L 2988 3500 
L 3597 3500 
L 2284 0 
L 1503 0 
L 191 3500 
z
" transform="scale(0.015625)"/>
       <path id="DejaVuSans-6f" d="M 1959 3097 
Q 1497 3097 1228 2736 
Q 959 2375 959 1747 
Q 959 1119 1226 758 
Q 1494 397 1959 397 
Q 2419 397 2687 759 
Q 2956 1122 2956 1747 
Q 2956 2369 2687 2733 
Q 2419 3097 1959 3097 
z
M 1959 3584 
Q 2709 3584 3137 3096 
Q 3566 2609 3566 1747 
Q 3566 888 3137 398 
Q 2709 -91 1959 -91 
Q 1206 -91 779 398 
Q 353 888 353 1747 
Q 353 2609 779 3096 
Q 1206 3584 1959 3584 
z
" transform="scale(0.015625)"/>
       <path id="DejaVuSans-6e" d="M 3513 2113 
L 3513 0 
L 2938 0 
L 2938 2094 
Q 2938 2591 2744 2837 
Q 2550 3084 2163 3084 
Q 1697 3084 1428 2787 
Q 1159 2491 1159 1978 
L 1159 0 
L 581 0 
L 581 3500 
L 1159 3500 
L 1159 2956 
Q 1366 3272 1645 3428 
Q 1925 3584 2291 3584 
Q 2894 3584 3203 3211 
Q 3513 2838 3513 2113 
z
" transform="scale(0.015625)"/>
       <path id="DejaVuSans-73" d="M 2834 3397 
L 2834 2853 
Q 2591 2978 2328 3040 
Q 2066 3103 1784 3103 
Q 1356 3103 1142 2972 
Q 928 2841 928 2578 
Q 928 2378 1081 2264 
Q 1234 2150 1697 2047 
L 1894 2003 
Q 2506 1872 2764 1633 
Q 3022 1394 3022 966 
Q 3022 478 2636 193 
Q 2250 -91 1575 -91 
Q 1294 -91 989 -36 
Q 684 19 347 128 
L 347 722 
Q 666 556 975 473 
Q 1284 391 1588 391 
Q 1994 391 2212 530 
Q 2431 669 2431 922 
Q 2431 1156 2273 1281 
Q 2116 1406 1581 1522 
L 1381 1569 
Q 847 1681 609 1914 
Q 372 2147 372 2553 
Q 372 3047 722 3315 
Q 1072 3584 1716 3584 
Q 2034 3584 2315 3537 
Q 2597 3491 2834 3397 
z
" transform="scale(0.015625)"/>
      </defs>
      <use xlink:href="#DejaVuSans-43"/>
      <use xlink:href="#DejaVuSans-65" x="69.824219"/>
      <use xlink:href="#DejaVuSans-6c" x="131.347656"/>
      <use xlink:href="#DejaVuSans-6c" x="159.130859"/>
      <use xlink:href="#DejaVuSans-20" x="186.914062"/>
      <use xlink:href="#DejaVuSans-61" x="218.701172"/>
      <use xlink:href="#DejaVuSans-63" x="279.980469"/>
      <use xlink:href="#DejaVuSans-74" x="334.960938"/>
      <use xlink:href="#DejaVuSans-69" x="374.169922"/>
      <use xlink:href="#DejaVuSans-76" x="401.953125"/>
      <use xlink:href="#DejaVuSans-61" x="461.132812"/>
      <use xlink:href="#DejaVuSans-74" x="522.412109"/>
      <use xlink:href="#DejaVuSans-69" x="561.621094"/>
      <use xlink:href="#DejaVuSans-6f" x="589.404297"/>
      <use xlink:href="#DejaVuSans-6e" x="650.585938"/>
      <use xlink:href="#DejaVuSans-20" x="713.964844"/>
      <use xlink:href="#DejaVuSans-73" x="745.751953"/>
      <use xlink:href="#DejaVuSans-74" x="797.851562"/>
      <use xlink:href="#DejaVuSans-61" x="837.060547"/>
      <use xlink:href="#DejaVuSans-74" x="898.339844"/>
      <use xlink:href="#DejaVuSans-65" x="937.548828"/>
     </g>
    </g>
   </g>
   <g id="matplotlib.axis_2">
    <g id="ytick_1">
     <g id="line2d_17">
      <defs>
       <path id="mcaebe0b586" d="M 0 0 
L -3.5 0 
" style="stroke: #000000; stroke-width: 0.8"/>
      </defs>
      <g>
       <use xlink:href="#mcaebe0b586" x="45.716875" y="245.597813" style="stroke: #000000; stroke-width: 0.8"/>
      </g>
     </g>
     <g id="text_18">
      <!-- 0.0 -->
      <g transform="translate(22.81375 249.397031)scale(0.1 -0.1)">
       <defs>
        <path id="DejaVuSans-2e" d="M 684 794 
L 1344 794 
L 1344 0 
L 684 0 
L 684 794 
z
" transform="scale(0.015625)"/>
       </defs>
       <use xlink:href="#DejaVuSans-30"/>
       <use xlink:href="#DejaVuSans-2e" x="63.623047"/>
       <use xlink:href="#DejaVuSans-30" x="95.410156"/>
      </g>
     </g>
    </g>
    <g id="ytick_2">
     <g id="line2d_18">
      <g>
       <use xlink:href="#mcaebe0b586" x="45.716875" y="208.637812" style="stroke: #000000; stroke-width: 0.8"/>
      </g>
     </g>
     <g id="text_19">
      <!-- 0.1 -->
      <g transform="translate(22.81375 212.437031)scale(0.1 -0.1)">
       <use xlink:href="#DejaVuSans-30"/>
       <use xlink:href="#DejaVuSans-2e" x="63.623047"/>
       <use xlink:href="#DejaVuSans-31" x="95.410156"/>
      </g>
     </g>
    </g>
    <g id="ytick_3">
     <g id="line2d_19">
      <g>
       <use xlink:href="#mcaebe0b586" x="45.716875" y="171.677813" style="stroke: #000000; stroke-width: 0.8"/>
      </g>
     </g>
     <g id="text_20">
      <!-- 0.2 -->
      <g transform="translate(22.81375 175.477031)scale(0.1 -0.1)">
       <defs>
        <path id="DejaVuSans-32" d="M 1228 531 
L 3431 531 
L 3431 0 
L 469 0 
L 469 531 
Q 828 903 1448 1529 
Q 2069 2156 2228 2338 
Q 2531 2678 2651 2914 
Q 2772 3150 2772 3378 
Q 2772 3750 2511 3984 
Q 2250 4219 1831 4219 
Q 1534 4219 1204 4116 
Q 875 4013 500 3803 
L 500 4441 
Q 881 4594 1212 4672 
Q 1544 4750 1819 4750 
Q 2544 4750 2975 4387 
Q 3406 4025 3406 3419 
Q 3406 3131 3298 2873 
Q 3191 2616 2906 2266 
Q 2828 2175 2409 1742 
Q 1991 1309 1228 531 
z
" transform="scale(0.015625)"/>
       </defs>
       <use xlink:href="#DejaVuSans-30"/>
       <use xlink:href="#DejaVuSans-2e" x="63.623047"/>
       <use xlink:href="#DejaVuSans-32" x="95.410156"/>
      </g>
     </g>
    </g>
    <g id="ytick_4">
     <g id="line2d_20">
      <g>
       <use xlink:href="#mcaebe0b586" x="45.716875" y="134.717812" style="stroke: #000000; stroke-width: 0.8"/>
      </g>
     </g>
     <g id="text_21">
      <!-- 0.3 -->
      <g transform="translate(22.81375 138.517031)scale(0.1 -0.1)">
       <defs>
        <path id="DejaVuSans-33" d="M 2597 2516 
Q 3050 2419 3304 2112 
Q 3559 1806 3559 1356 
Q 3559 666 3084 287 
Q 2609 -91 1734 -91 
Q 1441 -91 1130 -33 
Q 819 25 488 141 
L 488 750 
Q 750 597 1062 519 
Q 1375 441 1716 441 
Q 2309 441 2620 675 
Q 2931 909 2931 1356 
Q 2931 1769 2642 2001 
Q 2353 2234 1838 2234 
L 1294 2234 
L 1294 2753 
L 1863 2753 
Q 2328 2753 2575 2939 
Q 2822 3125 2822 3475 
Q 2822 3834 2567 4026 
Q 2313 4219 1838 4219 
Q 1578 4219 1281 4162 
Q 984 4106 628 3988 
L 628 4550 
Q 988 4650 1302 4700 
Q 1616 4750 1894 4750 
Q 2613 4750 3031 4423 
Q 3450 4097 3450 3541 
Q 3450 3153 3228 2886 
Q 3006 2619 2597 2516 
z
" transform="scale(0.015625)"/>
       </defs>
       <use xlink:href="#DejaVuSans-30"/>
       <use xlink:href="#DejaVuSans-2e" x="63.623047"/>
       <use xlink:href="#DejaVuSans-33" x="95.410156"/>
      </g>
     </g>
    </g>
    <g id="ytick_5">
     <g id="line2d_21">
      <g>
       <use xlink:href="#mcaebe0b586" x="45.716875" y="97.757812" style="stroke: #000000; stroke-width: 0.8"/>
      </g>
     </g>
     <g id="text_22">
      <!-- 0.4 -->
      <g transform="translate(22.81375 101.557031)scale(0.1 -0.1)">
       <defs>
        <path id="DejaVuSans-34" d="M 2419 4116 
L 825 1625 
L 2419 1625 
L 2419 4116 
z
M 2253 4666 
L 3047 4666 
L 3047 1625 
L 3713 1625 
L 3713 1100 
L 3047 1100 
L 3047 0 
L 2419 0 
L 2419 1100 
L 313 1100 
L 313 1709 
L 2253 4666 
z
" transform="scale(0.015625)"/>
       </defs>
       <use xlink:href="#DejaVuSans-30"/>
       <use xlink:href="#DejaVuSans-2e" x="63.623047"/>
       <use xlink:href="#DejaVuSans-34" x="95.410156"/>
      </g>
     </g>
    </g>
    <g id="ytick_6">
     <g id="line2d_22">
      <g>
       <use xlink:href="#mcaebe0b586" x="45.716875" y="60.797812" style="stroke: #000000; stroke-width: 0.8"/>
      </g>
     </g>
     <g id="text_23">
      <!-- 0.5 -->
      <g transform="translate(22.81375 64.597031)scale(0.1 -0.1)">
       <defs>
        <path id="DejaVuSans-35" d="M 691 4666 
L 3169 4666 
L 3169 4134 
L 1269 4134 
L 1269 2991 
Q 1406 3038 1543 3061 
Q 1681 3084 1819 3084 
Q 2600 3084 3056 2656 
Q 3513 2228 3513 1497 
Q 3513 744 3044 326 
Q 2575 -91 1722 -91 
Q 1428 -91 1123 -41 
Q 819 9 494 109 
L 494 744 
Q 775 591 1075 516 
Q 1375 441 1709 441 
Q 2250 441 2565 725 
Q 2881 1009 2881 1497 
Q 2881 1984 2565 2268 
Q 2250 2553 1709 2553 
Q 1456 2553 1204 2497 
Q 953 2441 691 2322 
L 691 4666 
z
" transform="scale(0.015625)"/>
       </defs>
       <use xlink:href="#DejaVuSans-30"/>
       <use xlink:href="#DejaVuSans-2e" x="63.623047"/>
       <use xlink:href="#DejaVuSans-35" x="95.410156"/>
      </g>
     </g>
    </g>
    <g id="ytick_7">
     <g id="line2d_23">
      <g>
       <use xlink:href="#mcaebe0b586" x="45.716875" y="23.837812" style="stroke: #000000; stroke-width: 0.8"/>
      </g>
     </g>
     <g id="text_24">
      <!-- 0.6 -->
      <g transform="translate(22.81375 27.637031)scale(0.1 -0.1)">
       <defs>
        <path id="DejaVuSans-36" d="M 2113 2584 
Q 1688 2584 1439 2293 
Q 1191 2003 1191 1497 
Q 1191 994 1439 701 
Q 1688 409 2113 409 
Q 2538 409 2786 701 
Q 3034 994 3034 1497 
Q 3034 2003 2786 2293 
Q 2538 2584 2113 2584 
z
M 3366 4563 
L 3366 3988 
Q 3128 4100 2886 4159 
Q 2644 4219 2406 4219 
Q 1781 4219 1451 3797 
Q 1122 3375 1075 2522 
Q 1259 2794 1537 2939 
Q 1816 3084 2150 3084 
Q 2853 3084 3261 2657 
Q 3669 2231 3669 1497 
Q 3669 778 3244 343 
Q 2819 -91 2113 -91 
Q 1303 -91 875 529 
Q 447 1150 447 2328 
Q 447 3434 972 4092 
Q 1497 4750 2381 4750 
Q 2619 4750 2861 4703 
Q 3103 4656 3366 4563 
z
" transform="scale(0.015625)"/>
       </defs>
       <use xlink:href="#DejaVuSans-30"/>
       <use xlink:href="#DejaVuSans-2e" x="63.623047"/>
       <use xlink:href="#DejaVuSans-36" x="95.410156"/>
      </g>
     </g>
    </g>
    <g id="text_25">
     <!-- Count(%) -->
     <g transform="translate(16.318125 162.91875)rotate(-90)scale(0.12 -0.12)">
      <defs>
       <path id="DejaVuSans-75" d="M 544 1381 
L 544 3500 
L 1119 3500 
L 1119 1403 
Q 1119 906 1312 657 
Q 1506 409 1894 409 
Q 2359 409 2629 706 
Q 2900 1003 2900 1516 
L 2900 3500 
L 3475 3500 
L 3475 0 
L 2900 0 
L 2900 538 
Q 2691 219 2414 64 
Q 2138 -91 1772 -91 
Q 1169 -91 856 284 
Q 544 659 544 1381 
z
M 1991 3584 
L 1991 3584 
z
" transform="scale(0.015625)"/>
       <path id="DejaVuSans-28" d="M 1984 4856 
Q 1566 4138 1362 3434 
Q 1159 2731 1159 2009 
Q 1159 1288 1364 580 
Q 1569 -128 1984 -844 
L 1484 -844 
Q 1016 -109 783 600 
Q 550 1309 550 2009 
Q 550 2706 781 3412 
Q 1013 4119 1484 4856 
L 1984 4856 
z
" transform="scale(0.015625)"/>
       <path id="DejaVuSans-25" d="M 4653 2053 
Q 4381 2053 4226 1822 
Q 4072 1591 4072 1178 
Q 4072 772 4226 539 
Q 4381 306 4653 306 
Q 4919 306 5073 539 
Q 5228 772 5228 1178 
Q 5228 1588 5073 1820 
Q 4919 2053 4653 2053 
z
M 4653 2450 
Q 5147 2450 5437 2106 
Q 5728 1763 5728 1178 
Q 5728 594 5436 251 
Q 5144 -91 4653 -91 
Q 4153 -91 3862 251 
Q 3572 594 3572 1178 
Q 3572 1766 3864 2108 
Q 4156 2450 4653 2450 
z
M 1428 4353 
Q 1159 4353 1004 4120 
Q 850 3888 850 3481 
Q 850 3069 1003 2837 
Q 1156 2606 1428 2606 
Q 1700 2606 1854 2837 
Q 2009 3069 2009 3481 
Q 2009 3884 1853 4118 
Q 1697 4353 1428 4353 
z
M 4250 4750 
L 4750 4750 
L 1831 -91 
L 1331 -91 
L 4250 4750 
z
M 1428 4750 
Q 1922 4750 2215 4408 
Q 2509 4066 2509 3481 
Q 2509 2891 2217 2550 
Q 1925 2209 1428 2209 
Q 931 2209 642 2551 
Q 353 2894 353 3481 
Q 353 4063 643 4406 
Q 934 4750 1428 4750 
z
" transform="scale(0.015625)"/>
       <path id="DejaVuSans-29" d="M 513 4856 
L 1013 4856 
Q 1481 4119 1714 3412 
Q 1947 2706 1947 2009 
Q 1947 1309 1714 600 
Q 1481 -109 1013 -844 
L 513 -844 
Q 928 -128 1133 580 
Q 1338 1288 1338 2009 
Q 1338 2731 1133 3434 
Q 928 4138 513 4856 
z
" transform="scale(0.015625)"/>
      </defs>
      <use xlink:href="#DejaVuSans-43"/>
      <use xlink:href="#DejaVuSans-6f" x="69.824219"/>
      <use xlink:href="#DejaVuSans-75" x="131.005859"/>
      <use xlink:href="#DejaVuSans-6e" x="194.384766"/>
      <use xlink:href="#DejaVuSans-74" x="257.763672"/>
      <use xlink:href="#DejaVuSans-28" x="296.972656"/>
      <use xlink:href="#DejaVuSans-25" x="335.986328"/>
      <use xlink:href="#DejaVuSans-29" x="431.005859"/>
     </g>
    </g>
   </g>
   <g id="patch_35">
    <path d="M 45.716875 245.597813 
L 45.716875 23.837812 
" style="fill: none; stroke: #000000; stroke-width: 0.8; stroke-linejoin: miter; stroke-linecap: square"/>
   </g>
   <g id="patch_36">
    <path d="M 492.116875 245.597813 
L 492.116875 23.837812 
" style="fill: none; stroke: #000000; stroke-width: 0.8; stroke-linejoin: miter; stroke-linecap: square"/>
   </g>
   <g id="patch_37">
    <path d="M 45.716875 245.597813 
L 492.116875 245.597813 
" style="fill: none; stroke: #000000; stroke-width: 0.8; stroke-linejoin: miter; stroke-linecap: square"/>
   </g>
   <g id="patch_38">
    <path d="M 45.716875 23.837812 
L 492.116875 23.837812 
" style="fill: none; stroke: #000000; stroke-width: 0.8; stroke-linejoin: miter; stroke-linecap: square"/>
   </g>
   <g id="text_26">
    <!-- 0.2395 -->
    <g transform="translate(57.669403 148.208213)rotate(-90)scale(0.09 -0.09)">
     <defs>
      <path id="DejaVuSans-39" d="M 703 97 
L 703 672 
Q 941 559 1184 500 
Q 1428 441 1663 441 
Q 2288 441 2617 861 
Q 2947 1281 2994 2138 
Q 2813 1869 2534 1725 
Q 2256 1581 1919 1581 
Q 1219 1581 811 2004 
Q 403 2428 403 3163 
Q 403 3881 828 4315 
Q 1253 4750 1959 4750 
Q 2769 4750 3195 4129 
Q 3622 3509 3622 2328 
Q 3622 1225 3098 567 
Q 2575 -91 1691 -91 
Q 1453 -91 1209 -44 
Q 966 3 703 97 
z
M 1959 2075 
Q 2384 2075 2632 2365 
Q 2881 2656 2881 3163 
Q 2881 3666 2632 3958 
Q 2384 4250 1959 4250 
Q 1534 4250 1286 3958 
Q 1038 3666 1038 3163 
Q 1038 2656 1286 2365 
Q 1534 2075 1959 2075 
z
" transform="scale(0.015625)"/>
     </defs>
     <use xlink:href="#DejaVuSans-30"/>
     <use xlink:href="#DejaVuSans-2e" x="63.623047"/>
     <use xlink:href="#DejaVuSans-32" x="95.410156"/>
     <use xlink:href="#DejaVuSans-33" x="159.033203"/>
     <use xlink:href="#DejaVuSans-39" x="222.65625"/>
     <use xlink:href="#DejaVuSans-35" x="286.279297"/>
    </g>
   </g>
   <g id="text_27">
    <!-- 0.1854 -->
    <g transform="translate(65.785767 168.203573)rotate(-90)scale(0.09 -0.09)">
     <defs>
      <path id="DejaVuSans-38" d="M 2034 2216 
Q 1584 2216 1326 1975 
Q 1069 1734 1069 1313 
Q 1069 891 1326 650 
Q 1584 409 2034 409 
Q 2484 409 2743 651 
Q 3003 894 3003 1313 
Q 3003 1734 2745 1975 
Q 2488 2216 2034 2216 
z
M 1403 2484 
Q 997 2584 770 2862 
Q 544 3141 544 3541 
Q 544 4100 942 4425 
Q 1341 4750 2034 4750 
Q 2731 4750 3128 4425 
Q 3525 4100 3525 3541 
Q 3525 3141 3298 2862 
Q 3072 2584 2669 2484 
Q 3125 2378 3379 2068 
Q 3634 1759 3634 1313 
Q 3634 634 3220 271 
Q 2806 -91 2034 -91 
Q 1263 -91 848 271 
Q 434 634 434 1313 
Q 434 1759 690 2068 
Q 947 2378 1403 2484 
z
M 1172 3481 
Q 1172 3119 1398 2916 
Q 1625 2713 2034 2713 
Q 2441 2713 2670 2916 
Q 2900 3119 2900 3481 
Q 2900 3844 2670 4047 
Q 2441 4250 2034 4250 
Q 1625 4250 1398 4047 
Q 1172 3844 1172 3481 
z
" transform="scale(0.015625)"/>
     </defs>
     <use xlink:href="#DejaVuSans-30"/>
     <use xlink:href="#DejaVuSans-2e" x="63.623047"/>
     <use xlink:href="#DejaVuSans-31" x="95.410156"/>
     <use xlink:href="#DejaVuSans-38" x="159.033203"/>
     <use xlink:href="#DejaVuSans-35" x="222.65625"/>
     <use xlink:href="#DejaVuSans-34" x="286.279297"/>
    </g>
   </g>
   <g id="text_28">
    <!-- 0.1151 -->
    <g transform="translate(84.723949 194.186453)rotate(-90)scale(0.09 -0.09)">
     <use xlink:href="#DejaVuSans-30"/>
     <use xlink:href="#DejaVuSans-2e" x="63.623047"/>
     <use xlink:href="#DejaVuSans-31" x="95.410156"/>
     <use xlink:href="#DejaVuSans-31" x="159.033203"/>
     <use xlink:href="#DejaVuSans-35" x="222.65625"/>
     <use xlink:href="#DejaVuSans-31" x="286.279297"/>
    </g>
   </g>
   <g id="text_29">
    <!-- 0.1144 -->
    <g transform="translate(92.840312 194.445173)rotate(-90)scale(0.09 -0.09)">
     <use xlink:href="#DejaVuSans-30"/>
     <use xlink:href="#DejaVuSans-2e" x="63.623047"/>
     <use xlink:href="#DejaVuSans-31" x="95.410156"/>
     <use xlink:href="#DejaVuSans-31" x="159.033203"/>
     <use xlink:href="#DejaVuSans-34" x="222.65625"/>
     <use xlink:href="#DejaVuSans-34" x="286.279297"/>
    </g>
   </g>
   <g id="text_30">
    <!-- 0.0294 -->
    <g transform="translate(111.778494 225.861173)rotate(-90)scale(0.09 -0.09)">
     <use xlink:href="#DejaVuSans-30"/>
     <use xlink:href="#DejaVuSans-2e" x="63.623047"/>
     <use xlink:href="#DejaVuSans-30" x="95.410156"/>
     <use xlink:href="#DejaVuSans-32" x="159.033203"/>
     <use xlink:href="#DejaVuSans-39" x="222.65625"/>
     <use xlink:href="#DejaVuSans-34" x="286.279297"/>
    </g>
   </g>
   <g id="text_31">
    <!-- 0.0413 -->
    <g transform="translate(119.894858 221.462933)rotate(-90)scale(0.09 -0.09)">
     <use xlink:href="#DejaVuSans-30"/>
     <use xlink:href="#DejaVuSans-2e" x="63.623047"/>
     <use xlink:href="#DejaVuSans-30" x="95.410156"/>
     <use xlink:href="#DejaVuSans-34" x="159.033203"/>
     <use xlink:href="#DejaVuSans-31" x="222.65625"/>
     <use xlink:href="#DejaVuSans-33" x="286.279297"/>
    </g>
   </g>
   <g id="text_32">
    <!-- 0.1357 -->
    <g transform="translate(138.83304 186.572693)rotate(-90)scale(0.09 -0.09)">
     <defs>
      <path id="DejaVuSans-37" d="M 525 4666 
L 3525 4666 
L 3525 4397 
L 1831 0 
L 1172 0 
L 2766 4134 
L 525 4134 
L 525 4666 
z
" transform="scale(0.015625)"/>
     </defs>
     <use xlink:href="#DejaVuSans-30"/>
     <use xlink:href="#DejaVuSans-2e" x="63.623047"/>
     <use xlink:href="#DejaVuSans-31" x="95.410156"/>
     <use xlink:href="#DejaVuSans-33" x="159.033203"/>
     <use xlink:href="#DejaVuSans-35" x="222.65625"/>
     <use xlink:href="#DejaVuSans-37" x="286.279297"/>
    </g>
   </g>
   <g id="text_33">
    <!-- 0.112 -->
    <g transform="translate(146.949403 195.332212)rotate(-90)scale(0.09 -0.09)">
     <use xlink:href="#DejaVuSans-30"/>
     <use xlink:href="#DejaVuSans-2e" x="63.623047"/>
     <use xlink:href="#DejaVuSans-31" x="95.410156"/>
     <use xlink:href="#DejaVuSans-31" x="159.033203"/>
     <use xlink:href="#DejaVuSans-32" x="222.65625"/>
    </g>
   </g>
   <g id="text_34">
    <!-- 0.0313 -->
    <g transform="translate(165.887585 225.158932)rotate(-90)scale(0.09 -0.09)">
     <use xlink:href="#DejaVuSans-30"/>
     <use xlink:href="#DejaVuSans-2e" x="63.623047"/>
     <use xlink:href="#DejaVuSans-30" x="95.410156"/>
     <use xlink:href="#DejaVuSans-33" x="159.033203"/>
     <use xlink:href="#DejaVuSans-31" x="222.65625"/>
     <use xlink:href="#DejaVuSans-33" x="286.279297"/>
    </g>
   </g>
   <g id="text_35">
    <!-- 0.0334 -->
    <g transform="translate(174.003949 224.382772)rotate(-90)scale(0.09 -0.09)">
     <use xlink:href="#DejaVuSans-30"/>
     <use xlink:href="#DejaVuSans-2e" x="63.623047"/>
     <use xlink:href="#DejaVuSans-30" x="95.410156"/>
     <use xlink:href="#DejaVuSans-33" x="159.033203"/>
     <use xlink:href="#DejaVuSans-33" x="222.65625"/>
     <use xlink:href="#DejaVuSans-34" x="286.279297"/>
    </g>
   </g>
   <g id="text_36">
    <!-- 0.1163 -->
    <g transform="translate(192.942131 193.742932)rotate(-90)scale(0.09 -0.09)">
     <use xlink:href="#DejaVuSans-30"/>
     <use xlink:href="#DejaVuSans-2e" x="63.623047"/>
     <use xlink:href="#DejaVuSans-31" x="95.410156"/>
     <use xlink:href="#DejaVuSans-31" x="159.033203"/>
     <use xlink:href="#DejaVuSans-36" x="222.65625"/>
     <use xlink:href="#DejaVuSans-33" x="286.279297"/>
    </g>
   </g>
   <g id="text_37">
    <!-- 0.0598 -->
    <g transform="translate(201.058494 214.625333)rotate(-90)scale(0.09 -0.09)">
     <use xlink:href="#DejaVuSans-30"/>
     <use xlink:href="#DejaVuSans-2e" x="63.623047"/>
     <use xlink:href="#DejaVuSans-30" x="95.410156"/>
     <use xlink:href="#DejaVuSans-35" x="159.033203"/>
     <use xlink:href="#DejaVuSans-39" x="222.65625"/>
     <use xlink:href="#DejaVuSans-38" x="286.279297"/>
    </g>
   </g>
   <g id="text_38">
    <!-- 0.0175 -->
    <g transform="translate(219.996676 230.259412)rotate(-90)scale(0.09 -0.09)">
     <use xlink:href="#DejaVuSans-30"/>
     <use xlink:href="#DejaVuSans-2e" x="63.623047"/>
     <use xlink:href="#DejaVuSans-30" x="95.410156"/>
     <use xlink:href="#DejaVuSans-31" x="159.033203"/>
     <use xlink:href="#DejaVuSans-37" x="222.65625"/>
     <use xlink:href="#DejaVuSans-35" x="286.279297"/>
    </g>
   </g>
   <g id="text_39">
    <!-- 0.0301 -->
    <g transform="translate(228.11304 225.602452)rotate(-90)scale(0.09 -0.09)">
     <use xlink:href="#DejaVuSans-30"/>
     <use xlink:href="#DejaVuSans-2e" x="63.623047"/>
     <use xlink:href="#DejaVuSans-30" x="95.410156"/>
     <use xlink:href="#DejaVuSans-33" x="159.033203"/>
     <use xlink:href="#DejaVuSans-30" x="222.65625"/>
     <use xlink:href="#DejaVuSans-31" x="286.279297"/>
    </g>
   </g>
   <g id="text_40">
    <!-- 0.0513 -->
    <g transform="translate(247.051222 217.766932)rotate(-90)scale(0.09 -0.09)">
     <use xlink:href="#DejaVuSans-30"/>
     <use xlink:href="#DejaVuSans-2e" x="63.623047"/>
     <use xlink:href="#DejaVuSans-30" x="95.410156"/>
     <use xlink:href="#DejaVuSans-35" x="159.033203"/>
     <use xlink:href="#DejaVuSans-31" x="222.65625"/>
     <use xlink:href="#DejaVuSans-33" x="286.279297"/>
    </g>
   </g>
   <g id="text_41">
    <!-- 0.0365 -->
    <g transform="translate(255.167585 223.237012)rotate(-90)scale(0.09 -0.09)">
     <use xlink:href="#DejaVuSans-30"/>
     <use xlink:href="#DejaVuSans-2e" x="63.623047"/>
     <use xlink:href="#DejaVuSans-30" x="95.410156"/>
     <use xlink:href="#DejaVuSans-33" x="159.033203"/>
     <use xlink:href="#DejaVuSans-36" x="222.65625"/>
     <use xlink:href="#DejaVuSans-35" x="286.279297"/>
    </g>
   </g>
   <g id="text_42">
    <!-- 0.0119 -->
    <g transform="translate(274.105767 232.329172)rotate(-90)scale(0.09 -0.09)">
     <use xlink:href="#DejaVuSans-30"/>
     <use xlink:href="#DejaVuSans-2e" x="63.623047"/>
     <use xlink:href="#DejaVuSans-30" x="95.410156"/>
     <use xlink:href="#DejaVuSans-31" x="159.033203"/>
     <use xlink:href="#DejaVuSans-31" x="222.65625"/>
     <use xlink:href="#DejaVuSans-39" x="286.279297"/>
    </g>
   </g>
   <g id="text_43">
    <!-- 0.0149 -->
    <g transform="translate(282.222131 231.220372)rotate(-90)scale(0.09 -0.09)">
     <use xlink:href="#DejaVuSans-30"/>
     <use xlink:href="#DejaVuSans-2e" x="63.623047"/>
     <use xlink:href="#DejaVuSans-30" x="95.410156"/>
     <use xlink:href="#DejaVuSans-31" x="159.033203"/>
     <use xlink:href="#DejaVuSans-34" x="222.65625"/>
     <use xlink:href="#DejaVuSans-39" x="286.279297"/>
    </g>
   </g>
   <g id="text_44">
    <!-- 0.015 -->
    <g transform="translate(301.160312 231.183413)rotate(-90)scale(0.09 -0.09)">
     <use xlink:href="#DejaVuSans-30"/>
     <use xlink:href="#DejaVuSans-2e" x="63.623047"/>
     <use xlink:href="#DejaVuSans-30" x="95.410156"/>
     <use xlink:href="#DejaVuSans-31" x="159.033203"/>
     <use xlink:href="#DejaVuSans-35" x="222.65625"/>
    </g>
   </g>
   <g id="text_45">
    <!-- 0.0182 -->
    <g transform="translate(309.276676 230.000693)rotate(-90)scale(0.09 -0.09)">
     <use xlink:href="#DejaVuSans-30"/>
     <use xlink:href="#DejaVuSans-2e" x="63.623047"/>
     <use xlink:href="#DejaVuSans-30" x="95.410156"/>
     <use xlink:href="#DejaVuSans-31" x="159.033203"/>
     <use xlink:href="#DejaVuSans-38" x="222.65625"/>
     <use xlink:href="#DejaVuSans-32" x="286.279297"/>
    </g>
   </g>
   <g id="text_46">
    <!-- 0.035 -->
    <g transform="translate(328.214858 223.791413)rotate(-90)scale(0.09 -0.09)">
     <use xlink:href="#DejaVuSans-30"/>
     <use xlink:href="#DejaVuSans-2e" x="63.623047"/>
     <use xlink:href="#DejaVuSans-30" x="95.410156"/>
     <use xlink:href="#DejaVuSans-33" x="159.033203"/>
     <use xlink:href="#DejaVuSans-35" x="222.65625"/>
    </g>
   </g>
   <g id="text_47">
    <!-- 0.0375 -->
    <g transform="translate(336.331222 222.867413)rotate(-90)scale(0.09 -0.09)">
     <use xlink:href="#DejaVuSans-30"/>
     <use xlink:href="#DejaVuSans-2e" x="63.623047"/>
     <use xlink:href="#DejaVuSans-30" x="95.410156"/>
     <use xlink:href="#DejaVuSans-33" x="159.033203"/>
     <use xlink:href="#DejaVuSans-37" x="222.65625"/>
     <use xlink:href="#DejaVuSans-35" x="286.279297"/>
    </g>
   </g>
   <g id="text_48">
    <!-- 0.01 -->
    <g transform="translate(355.269403 233.031412)rotate(-90)scale(0.09 -0.09)">
     <use xlink:href="#DejaVuSans-30"/>
     <use xlink:href="#DejaVuSans-2e" x="63.623047"/>
     <use xlink:href="#DejaVuSans-30" x="95.410156"/>
     <use xlink:href="#DejaVuSans-31" x="159.033203"/>
    </g>
   </g>
   <g id="text_49">
    <!-- 0.0171 -->
    <g transform="translate(363.385767 230.407252)rotate(-90)scale(0.09 -0.09)">
     <use xlink:href="#DejaVuSans-30"/>
     <use xlink:href="#DejaVuSans-2e" x="63.623047"/>
     <use xlink:href="#DejaVuSans-30" x="95.410156"/>
     <use xlink:href="#DejaVuSans-31" x="159.033203"/>
     <use xlink:href="#DejaVuSans-37" x="222.65625"/>
     <use xlink:href="#DejaVuSans-31" x="286.279297"/>
    </g>
   </g>
   <g id="text_50">
    <!-- 0.0163 -->
    <g transform="translate(382.323949 230.702933)rotate(-90)scale(0.09 -0.09)">
     <use xlink:href="#DejaVuSans-30"/>
     <use xlink:href="#DejaVuSans-2e" x="63.623047"/>
     <use xlink:href="#DejaVuSans-30" x="95.410156"/>
     <use xlink:href="#DejaVuSans-31" x="159.033203"/>
     <use xlink:href="#DejaVuSans-36" x="222.65625"/>
     <use xlink:href="#DejaVuSans-33" x="286.279297"/>
    </g>
   </g>
   <g id="text_51">
    <!-- 0.0166 -->
    <g transform="translate(390.440313 230.592053)rotate(-90)scale(0.09 -0.09)">
     <use xlink:href="#DejaVuSans-30"/>
     <use xlink:href="#DejaVuSans-2e" x="63.623047"/>
     <use xlink:href="#DejaVuSans-30" x="95.410156"/>
     <use xlink:href="#DejaVuSans-31" x="159.033203"/>
     <use xlink:href="#DejaVuSans-36" x="222.65625"/>
     <use xlink:href="#DejaVuSans-36" x="286.279297"/>
    </g>
   </g>
   <g id="text_52">
    <!-- 0.0138 -->
    <g transform="translate(409.378494 231.626933)rotate(-90)scale(0.09 -0.09)">
     <use xlink:href="#DejaVuSans-30"/>
     <use xlink:href="#DejaVuSans-2e" x="63.623047"/>
     <use xlink:href="#DejaVuSans-30" x="95.410156"/>
     <use xlink:href="#DejaVuSans-31" x="159.033203"/>
     <use xlink:href="#DejaVuSans-33" x="222.65625"/>
     <use xlink:href="#DejaVuSans-38" x="286.279297"/>
    </g>
   </g>
   <g id="text_53">
    <!-- 0.0153 -->
    <g transform="translate(417.494858 231.072532)rotate(-90)scale(0.09 -0.09)">
     <use xlink:href="#DejaVuSans-30"/>
     <use xlink:href="#DejaVuSans-2e" x="63.623047"/>
     <use xlink:href="#DejaVuSans-30" x="95.410156"/>
     <use xlink:href="#DejaVuSans-31" x="159.033203"/>
     <use xlink:href="#DejaVuSans-35" x="222.65625"/>
     <use xlink:href="#DejaVuSans-33" x="286.279297"/>
    </g>
   </g>
   <g id="text_54">
    <!-- 0.0281 -->
    <g transform="translate(436.43304 226.341653)rotate(-90)scale(0.09 -0.09)">
     <use xlink:href="#DejaVuSans-30"/>
     <use xlink:href="#DejaVuSans-2e" x="63.623047"/>
     <use xlink:href="#DejaVuSans-30" x="95.410156"/>
     <use xlink:href="#DejaVuSans-32" x="159.033203"/>
     <use xlink:href="#DejaVuSans-38" x="222.65625"/>
     <use xlink:href="#DejaVuSans-31" x="286.279297"/>
    </g>
   </g>
   <g id="text_55">
    <!-- 0.0293 -->
    <g transform="translate(444.549403 225.898133)rotate(-90)scale(0.09 -0.09)">
     <use xlink:href="#DejaVuSans-30"/>
     <use xlink:href="#DejaVuSans-2e" x="63.623047"/>
     <use xlink:href="#DejaVuSans-30" x="95.410156"/>
     <use xlink:href="#DejaVuSans-32" x="159.033203"/>
     <use xlink:href="#DejaVuSans-39" x="222.65625"/>
     <use xlink:href="#DejaVuSans-33" x="286.279297"/>
    </g>
   </g>
   <g id="text_56">
    <!-- 0.0188 -->
    <g transform="translate(463.487585 229.778932)rotate(-90)scale(0.09 -0.09)">
     <use xlink:href="#DejaVuSans-30"/>
     <use xlink:href="#DejaVuSans-2e" x="63.623047"/>
     <use xlink:href="#DejaVuSans-30" x="95.410156"/>
     <use xlink:href="#DejaVuSans-31" x="159.033203"/>
     <use xlink:href="#DejaVuSans-38" x="222.65625"/>
     <use xlink:href="#DejaVuSans-38" x="286.279297"/>
    </g>
   </g>
   <g id="text_57">
    <!-- 0.0142 -->
    <g transform="translate(471.603949 231.479093)rotate(-90)scale(0.09 -0.09)">
     <use xlink:href="#DejaVuSans-30"/>
     <use xlink:href="#DejaVuSans-2e" x="63.623047"/>
     <use xlink:href="#DejaVuSans-30" x="95.410156"/>
     <use xlink:href="#DejaVuSans-31" x="159.033203"/>
     <use xlink:href="#DejaVuSans-34" x="222.65625"/>
     <use xlink:href="#DejaVuSans-32" x="286.279297"/>
    </g>
   </g>
   <g id="text_58">
    <!-- Comparison of distributions -->
    <g transform="translate(172.272031 17.837812)scale(0.14 -0.14)">
     <defs>
      <path id="DejaVuSans-6d" d="M 3328 2828 
Q 3544 3216 3844 3400 
Q 4144 3584 4550 3584 
Q 5097 3584 5394 3201 
Q 5691 2819 5691 2113 
L 5691 0 
L 5113 0 
L 5113 2094 
Q 5113 2597 4934 2840 
Q 4756 3084 4391 3084 
Q 3944 3084 3684 2787 
Q 3425 2491 3425 1978 
L 3425 0 
L 2847 0 
L 2847 2094 
Q 2847 2600 2669 2842 
Q 2491 3084 2119 3084 
Q 1678 3084 1418 2786 
Q 1159 2488 1159 1978 
L 1159 0 
L 581 0 
L 581 3500 
L 1159 3500 
L 1159 2956 
Q 1356 3278 1631 3431 
Q 1906 3584 2284 3584 
Q 2666 3584 2933 3390 
Q 3200 3197 3328 2828 
z
" transform="scale(0.015625)"/>
      <path id="DejaVuSans-70" d="M 1159 525 
L 1159 -1331 
L 581 -1331 
L 581 3500 
L 1159 3500 
L 1159 2969 
Q 1341 3281 1617 3432 
Q 1894 3584 2278 3584 
Q 2916 3584 3314 3078 
Q 3713 2572 3713 1747 
Q 3713 922 3314 415 
Q 2916 -91 2278 -91 
Q 1894 -91 1617 61 
Q 1341 213 1159 525 
z
M 3116 1747 
Q 3116 2381 2855 2742 
Q 2594 3103 2138 3103 
Q 1681 3103 1420 2742 
Q 1159 2381 1159 1747 
Q 1159 1113 1420 752 
Q 1681 391 2138 391 
Q 2594 391 2855 752 
Q 3116 1113 3116 1747 
z
" transform="scale(0.015625)"/>
      <path id="DejaVuSans-72" d="M 2631 2963 
Q 2534 3019 2420 3045 
Q 2306 3072 2169 3072 
Q 1681 3072 1420 2755 
Q 1159 2438 1159 1844 
L 1159 0 
L 581 0 
L 581 3500 
L 1159 3500 
L 1159 2956 
Q 1341 3275 1631 3429 
Q 1922 3584 2338 3584 
Q 2397 3584 2469 3576 
Q 2541 3569 2628 3553 
L 2631 2963 
z
" transform="scale(0.015625)"/>
      <path id="DejaVuSans-66" d="M 2375 4863 
L 2375 4384 
L 1825 4384 
Q 1516 4384 1395 4259 
Q 1275 4134 1275 3809 
L 1275 3500 
L 2222 3500 
L 2222 3053 
L 1275 3053 
L 1275 0 
L 697 0 
L 697 3053 
L 147 3053 
L 147 3500 
L 697 3500 
L 697 3744 
Q 697 4328 969 4595 
Q 1241 4863 1831 4863 
L 2375 4863 
z
" transform="scale(0.015625)"/>
      <path id="DejaVuSans-64" d="M 2906 2969 
L 2906 4863 
L 3481 4863 
L 3481 0 
L 2906 0 
L 2906 525 
Q 2725 213 2448 61 
Q 2172 -91 1784 -91 
Q 1150 -91 751 415 
Q 353 922 353 1747 
Q 353 2572 751 3078 
Q 1150 3584 1784 3584 
Q 2172 3584 2448 3432 
Q 2725 3281 2906 2969 
z
M 947 1747 
Q 947 1113 1208 752 
Q 1469 391 1925 391 
Q 2381 391 2643 752 
Q 2906 1113 2906 1747 
Q 2906 2381 2643 2742 
Q 2381 3103 1925 3103 
Q 1469 3103 1208 2742 
Q 947 2381 947 1747 
z
" transform="scale(0.015625)"/>
      <path id="DejaVuSans-62" d="M 3116 1747 
Q 3116 2381 2855 2742 
Q 2594 3103 2138 3103 
Q 1681 3103 1420 2742 
Q 1159 2381 1159 1747 
Q 1159 1113 1420 752 
Q 1681 391 2138 391 
Q 2594 391 2855 752 
Q 3116 1113 3116 1747 
z
M 1159 2969 
Q 1341 3281 1617 3432 
Q 1894 3584 2278 3584 
Q 2916 3584 3314 3078 
Q 3713 2572 3713 1747 
Q 3713 922 3314 415 
Q 2916 -91 2278 -91 
Q 1894 -91 1617 61 
Q 1341 213 1159 525 
L 1159 0 
L 581 0 
L 581 4863 
L 1159 4863 
L 1159 2969 
z
" transform="scale(0.015625)"/>
     </defs>
     <use xlink:href="#DejaVuSans-43"/>
     <use xlink:href="#DejaVuSans-6f" x="69.824219"/>
     <use xlink:href="#DejaVuSans-6d" x="131.005859"/>
     <use xlink:href="#DejaVuSans-70" x="228.417969"/>
     <use xlink:href="#DejaVuSans-61" x="291.894531"/>
     <use xlink:href="#DejaVuSans-72" x="353.173828"/>
     <use xlink:href="#DejaVuSans-69" x="394.287109"/>
     <use xlink:href="#DejaVuSans-73" x="422.070312"/>
     <use xlink:href="#DejaVuSans-6f" x="474.169922"/>
     <use xlink:href="#DejaVuSans-6e" x="535.351562"/>
     <use xlink:href="#DejaVuSans-20" x="598.730469"/>
     <use xlink:href="#DejaVuSans-6f" x="630.517578"/>
     <use xlink:href="#DejaVuSans-66" x="691.699219"/>
     <use xlink:href="#DejaVuSans-20" x="726.904297"/>
     <use xlink:href="#DejaVuSans-64" x="758.691406"/>
     <use xlink:href="#DejaVuSans-69" x="822.167969"/>
     <use xlink:href="#DejaVuSans-73" x="849.951172"/>
     <use xlink:href="#DejaVuSans-74" x="902.050781"/>
     <use xlink:href="#DejaVuSans-72" x="941.259766"/>
     <use xlink:href="#DejaVuSans-69" x="982.373047"/>
     <use xlink:href="#DejaVuSans-62" x="1010.15625"/>
     <use xlink:href="#DejaVuSans-75" x="1073.632812"/>
     <use xlink:href="#DejaVuSans-74" x="1137.011719"/>
     <use xlink:href="#DejaVuSans-69" x="1176.220703"/>
     <use xlink:href="#DejaVuSans-6f" x="1204.003906"/>
     <use xlink:href="#DejaVuSans-6e" x="1265.185547"/>
     <use xlink:href="#DejaVuSans-73" x="1328.564453"/>
    </g>
   </g>
   <g id="legend_1">
    <g id="patch_39">
     <path d="M 427.216875 64.437812 
L 485.116875 64.437812 
Q 487.116875 64.437812 487.116875 62.437812 
L 487.116875 30.837812 
Q 487.116875 28.837812 485.116875 28.837812 
L 427.216875 28.837812 
Q 425.216875 28.837812 425.216875 30.837812 
L 425.216875 62.437812 
Q 425.216875 64.437812 427.216875 64.437812 
z
" style="fill: #ffffff; opacity: 0.8; stroke: #cccccc; stroke-linejoin: miter"/>
    </g>
    <g id="patch_40">
     <path d="M 429.216875 42.037812 
L 449.216875 42.037812 
L 449.216875 35.037812 
L 429.216875 35.037812 
z
" style="fill: #1f77b4"/>
    </g>
    <g id="text_59">
     <!-- $p^{obs}$ -->
     <g transform="translate(457.216875 42.037812)scale(0.1 -0.1)">
      <defs>
       <path id="DejaVuSans-Oblique-70" d="M 3175 2156 
Q 3175 2616 2975 2859 
Q 2775 3103 2400 3103 
Q 2144 3103 1911 2972 
Q 1678 2841 1497 2591 
Q 1319 2344 1212 1994 
Q 1106 1644 1106 1300 
Q 1106 863 1306 627 
Q 1506 391 1875 391 
Q 2147 391 2380 519 
Q 2613 647 2778 891 
Q 2956 1147 3065 1494 
Q 3175 1841 3175 2156 
z
M 1394 2969 
Q 1625 3272 1939 3428 
Q 2253 3584 2638 3584 
Q 3175 3584 3472 3232 
Q 3769 2881 3769 2247 
Q 3769 1728 3584 1258 
Q 3400 788 3053 416 
Q 2822 169 2531 39 
Q 2241 -91 1919 -91 
Q 1547 -91 1294 64 
Q 1041 219 916 525 
L 556 -1331 
L -19 -1331 
L 922 3500 
L 1497 3500 
L 1394 2969 
z
" transform="scale(0.015625)"/>
       <path id="DejaVuSans-Oblique-6f" d="M 1625 -91 
Q 1009 -91 651 289 
Q 294 669 294 1325 
Q 294 1706 417 2101 
Q 541 2497 738 2766 
Q 1047 3184 1428 3384 
Q 1809 3584 2291 3584 
Q 2888 3584 3255 3212 
Q 3622 2841 3622 2241 
Q 3622 1825 3500 1412 
Q 3378 1000 3181 728 
Q 2875 309 2494 109 
Q 2113 -91 1625 -91 
z
M 891 1344 
Q 891 869 1089 633 
Q 1288 397 1691 397 
Q 2269 397 2648 901 
Q 3028 1406 3028 2181 
Q 3028 2634 2825 2865 
Q 2622 3097 2228 3097 
Q 1903 3097 1650 2945 
Q 1397 2794 1197 2484 
Q 1050 2253 970 1956 
Q 891 1659 891 1344 
z
" transform="scale(0.015625)"/>
       <path id="DejaVuSans-Oblique-62" d="M 3169 2138 
Q 3169 2591 2961 2847 
Q 2753 3103 2388 3103 
Q 2122 3103 1889 2973 
Q 1656 2844 1484 2597 
Q 1303 2338 1198 1995 
Q 1094 1653 1094 1313 
Q 1094 881 1298 636 
Q 1503 391 1863 391 
Q 2134 391 2365 517 
Q 2597 644 2772 891 
Q 2950 1147 3059 1487 
Q 3169 1828 3169 2138 
z
M 1381 2969 
Q 1594 3256 1914 3420 
Q 2234 3584 2584 3584 
Q 3122 3584 3439 3221 
Q 3756 2859 3756 2241 
Q 3756 1734 3570 1259 
Q 3384 784 3041 416 
Q 2816 172 2522 40 
Q 2228 -91 1906 -91 
Q 1566 -91 1316 65 
Q 1066 222 909 531 
L 806 0 
L 231 0 
L 1178 4863 
L 1753 4863 
L 1381 2969 
z
" transform="scale(0.015625)"/>
       <path id="DejaVuSans-Oblique-73" d="M 3200 3397 
L 3091 2853 
Q 2863 2978 2609 3040 
Q 2356 3103 2088 3103 
Q 1634 3103 1373 2948 
Q 1113 2794 1113 2528 
Q 1113 2219 1719 2053 
Q 1766 2041 1788 2034 
L 1972 1978 
Q 2547 1819 2739 1644 
Q 2931 1469 2931 1166 
Q 2931 609 2489 259 
Q 2047 -91 1331 -91 
Q 1053 -91 747 -37 
Q 441 16 72 128 
L 184 722 
Q 500 559 806 475 
Q 1113 391 1394 391 
Q 1816 391 2080 572 
Q 2344 753 2344 1031 
Q 2344 1331 1650 1516 
L 1591 1531 
L 1394 1581 
Q 956 1697 753 1886 
Q 550 2075 550 2369 
Q 550 2928 970 3256 
Q 1391 3584 2113 3584 
Q 2397 3584 2667 3537 
Q 2938 3491 3200 3397 
z
" transform="scale(0.015625)"/>
      </defs>
      <use xlink:href="#DejaVuSans-Oblique-70" transform="translate(0 0.529687)"/>
      <use xlink:href="#DejaVuSans-Oblique-6f" transform="translate(68.126458 38.810937)scale(0.7)"/>
      <use xlink:href="#DejaVuSans-Oblique-62" transform="translate(110.953607 38.810937)scale(0.7)"/>
      <use xlink:href="#DejaVuSans-Oblique-73" transform="translate(155.387201 38.810937)scale(0.7)"/>
     </g>
    </g>
    <g id="patch_41">
     <path d="M 429.216875 58.337812 
L 449.216875 58.337812 
L 449.216875 51.337812 
L 429.216875 51.337812 
z
" style="fill: #ff7f0e"/>
    </g>
    <g id="text_60">
     <!-- $p^{qiskit}$ -->
     <g transform="translate(457.216875 58.337812)scale(0.1 -0.1)">
      <defs>
       <path id="DejaVuSans-Oblique-71" d="M 2669 525 
Q 2438 222 2123 65 
Q 1809 -91 1428 -91 
Q 897 -91 595 267 
Q 294 625 294 1253 
Q 294 1759 480 2231 
Q 666 2703 1013 3078 
Q 1238 3322 1530 3453 
Q 1822 3584 2144 3584 
Q 2531 3584 2781 3431 
Q 3031 3278 3144 2969 
L 3244 3494 
L 3822 3494 
L 2888 -1319 
L 2309 -1319 
L 2669 525 
z
M 891 1338 
Q 891 875 1084 633 
Q 1278 391 1644 391 
Q 2188 391 2572 911 
Q 2956 1431 2956 2175 
Q 2956 2625 2757 2864 
Q 2559 3103 2188 3103 
Q 1916 3103 1684 2976 
Q 1453 2850 1281 2606 
Q 1100 2350 995 2006 
Q 891 1663 891 1338 
z
" transform="scale(0.015625)"/>
       <path id="DejaVuSans-Oblique-69" d="M 1172 4863 
L 1747 4863 
L 1606 4134 
L 1031 4134 
L 1172 4863 
z
M 909 3500 
L 1484 3500 
L 800 0 
L 225 0 
L 909 3500 
z
" transform="scale(0.015625)"/>
       <path id="DejaVuSans-Oblique-6b" d="M 1172 4863 
L 1747 4863 
L 1197 2028 
L 3169 3500 
L 3916 3500 
L 1716 1825 
L 3322 0 
L 2625 0 
L 1131 1709 
L 800 0 
L 225 0 
L 1172 4863 
z
" transform="scale(0.015625)"/>
       <path id="DejaVuSans-Oblique-74" d="M 2706 3500 
L 2619 3053 
L 1472 3053 
L 1100 1153 
Q 1081 1047 1072 975 
Q 1063 903 1063 863 
Q 1063 663 1183 572 
Q 1303 481 1569 481 
L 2150 481 
L 2053 0 
L 1503 0 
Q 991 0 739 200 
Q 488 400 488 806 
Q 488 878 497 964 
Q 506 1050 525 1153 
L 897 3053 
L 409 3053 
L 500 3500 
L 978 3500 
L 1172 4494 
L 1747 4494 
L 1556 3500 
L 2706 3500 
z
" transform="scale(0.015625)"/>
      </defs>
      <use xlink:href="#DejaVuSans-Oblique-70" transform="translate(0 0.529687)"/>
      <use xlink:href="#DejaVuSans-Oblique-71" transform="translate(68.126458 38.810937)scale(0.7)"/>
      <use xlink:href="#DejaVuSans-Oblique-69" transform="translate(112.560052 38.810937)scale(0.7)"/>
      <use xlink:href="#DejaVuSans-Oblique-73" transform="translate(132.008294 38.810937)scale(0.7)"/>
      <use xlink:href="#DejaVuSans-Oblique-6b" transform="translate(168.478021 38.810937)scale(0.7)"/>
      <use xlink:href="#DejaVuSans-Oblique-69" transform="translate(209.01513 38.810937)scale(0.7)"/>
      <use xlink:href="#DejaVuSans-Oblique-74" transform="translate(228.463372 38.810937)scale(0.7)"/>
     </g>
    </g>
   </g>
  </g>
 </g>
 <defs>
  <clipPath id="p7c87b8d049">
   <rect x="45.716875" y="23.837812" width="446.4" height="221.76"/>
  </clipPath>
 </defs>
</svg>
